# xmcd CD database file
#
# Track frame offsets:
#	150
#	9330
#	21791
#	34236
#	44285
#	62622
#	71104
#	81547
#	98914
#	119321
#	130528
#	138310
#	148960
#	159730
#	170876
#
# Disc length: 2493 seconds
#
# Revision: 0
# Processed by: cddbd v1.5.1PL0 Copyright (c) Steve Scherf et al.
# Submitted via: CDex 1.51
#
DISCID=d709bb0f
DTITLE=Johnny Paycheck - The Little Darlin' Sound - Earliest Years
DYEAR=2004
DGENRE=Country
TTITLE0=Don't Start Countin' on Me 
TTITLE1=The Girl They Talk About 
TTITLE2=High Heels and No Soul
TTITLE3=Don't You Get Lonesome
TTITLE4=Passion and Pride
TTITLE5=I Thought I'd Never Fall in Love Again
TTITLE6=I'm Glad to Have Her Back Again
TTITLE7=Beyond the Last Mile
TTITLE8=Gallaway Bay
TTITLE9=A Girl Like You
TTITLE10=Shackles and Chains
TTITLE11=With Your Wedding Ring In My Hand
TTITLE12=When You're Tired of Breaking Their Hearts
TTITLE13=Columbus Stockade Blues
TTITLE14=Stone Heart
EXTD=YEAR: 2004
EXTT0=
EXTT1=
EXTT2=
EXTT3=
EXTT4=
EXTT5=
EXTT6=
EXTT7=
EXTT8=
EXTT9=
EXTT10=
EXTT11=
EXTT12=
EXTT13=
EXTT14=
PLAYORDER=
